<?xml version="1.0" encoding="UTF-8"?>
<svg xmlns="http://www.w3.org/2000/svg" width="256" height="256" viewBox="0 0 256 256" role="img" aria-label="tokemetry favicon">
  <defs>
    <linearGradient id="tokemetry-accent" x1="0" y1="40" x2="340" y2="180" gradientUnits="userSpaceOnUse"><stop offset="0" stop-color="#27D8F3"/><stop offset="1" stop-color="#45E08D"/></linearGradient>
    <linearGradient id="tokemetry-frame" x1="95" y1="10" x2="330" y2="210" gradientUnits="userSpaceOnUse"><stop offset="0" stop-color="#235F6C"/><stop offset="1" stop-color="#1A4950"/></linearGradient>
  </defs>
  <g transform="translate(-54,8) scale(1.02)" stroke-linecap="round" stroke-linejoin="round">
    <path d="M182 25 L285 84 L285 166 L182 225 L79 166 L79 84 Z" fill="none" stroke="url(#tokemetry-frame)" stroke-width="18" opacity="0.72"/>
    <polygon points="116.52,118.00 94.00,131.00 71.48,118.00 71.48,92.00 94.00,79.00 116.52,92.00" fill="url(#tokemetry-accent)"/>
    <polygon points="142.72,80.50 128.00,89.00 113.28,80.50 113.28,63.50 128.00,55.00 142.72,63.50" fill="url(#tokemetry-accent)" opacity="0.95"/>
    <path d="M124 105 C154 105 175 105 196 105 L206 88 L220 130 L236 76 L254 112 L273 105" fill="none" stroke="url(#tokemetry-accent)" stroke-width="13"/>
    <path d="M302 78 Q312 78 312 88 L312 162 Q312 172 302 172" fill="none" stroke="url(#tokemetry-accent)" stroke-width="11" opacity="0.96"/>
  </g>
</svg>
