<?xml version="1.0" encoding="UTF-8"?>
<svg xmlns="http://www.w3.org/2000/svg" width="1200" height="800" viewBox="0 0 1200 800" role="img" aria-label="tokemetry logo">
  <g transform="translate(320,120) scale(1.55)" stroke-linecap="round" stroke-linejoin="round">
    <path d="M202 15 L305 74 L305 156 L202 215 L99 156 L99 74 Z" fill="none" stroke="#F5F7FA" stroke-width="13" opacity="0.55"/>
    <polygon points="70.85,125.50 44.00,141.00 17.15,125.50 17.15,94.50 44.00,79.00 70.85,94.50" fill="#F5F7FA"/>
    <polygon points="122.19,74.50 104.00,85.00 85.81,74.50 85.81,53.50 104.00,43.00 122.19,53.50" fill="#F5F7FA" opacity="0.9"/>
    <polygon points="122.19,162.50 104.00,173.00 85.81,162.50 85.81,141.50 104.00,131.00 122.19,141.50" fill="#F5F7FA" opacity="0.9"/>
    <path d="M76 110 C118 110 151 110 188 110" fill="none" stroke="#F5F7FA" stroke-width="10"/>
    <path d="M126 66 C143 70 145 90 166 91 C176 91 181 100 190 106" fill="none" stroke="#F5F7FA" stroke-width="8.5"/>
    <path d="M126 150 C145 145 148 128 168 127 C179 127 182 118 192 113" fill="none" stroke="#F5F7FA" stroke-width="8.5"/>
    <path d="M187 110 C197 110 204 110 211 110 L221 94 L233 123 L247 73 L265 142 L282 92 L298 110 L319 110" fill="none" stroke="#F5F7FA" stroke-width="9.5"/>
    <path d="M335 74 Q344 74 344 83 L344 157 Q344 166 335 166" fill="none" stroke="#F5F7FA" stroke-width="8.5" opacity="0.96"/>
  </g>
  <path fill="#F5F7FA" d="M348.23 649.28Q343.78 651.5 336.52 651.5Q317.02 651.5 317.02 632.79V594.91H305.83V583H317.02V567.49L332.2 563.17V583H348.23V594.91H332.2V628.41Q332.2 634.36 334.36 636.91Q336.52 639.47 341.56 639.47Q345.42 639.47 348.23 637.24Z M387.02 651.57Q371.51 651.57 362.25 642.18Q353 632.79 353 617.29Q353 600.4 362.65 590.92Q372.3 581.43 388.66 581.43Q404.36 581.43 413.13 590.66Q421.89 599.88 421.89 616.24Q421.89 632.27 412.44 641.92Q402.98 651.57 387.02 651.57ZM387.74 593.53Q378.84 593.53 373.67 599.75Q368.5 605.97 368.5 616.89Q368.5 627.43 373.74 633.48Q378.97 639.53 387.74 639.53Q396.7 639.53 401.51 633.58Q406.32 627.62 406.32 616.63Q406.32 605.57 401.51 599.55Q396.7 593.53 387.74 593.53Z M494.12 650H474.88L448.84 617.81H448.58V650H433.34V550.81H448.58V613.69H448.84L473.44 583H491.7L464.02 615.32Z M556.4 620.62H510.73Q510.99 629.91 516.46 634.95Q521.92 639.99 531.47 639.99Q542.2 639.99 551.17 633.58V645.81Q542.01 651.57 526.96 651.57Q512.17 651.57 503.76 642.44Q495.35 633.32 495.35 616.76Q495.35 601.12 504.61 591.28Q513.87 581.43 527.61 581.43Q541.35 581.43 548.88 590.26Q556.4 599.1 556.4 614.8ZM541.74 609.89Q541.68 601.71 537.88 597.17Q534.09 592.62 527.41 592.62Q520.87 592.62 516.32 597.39Q511.78 602.17 510.73 609.89Z M667.03 650H651.85V613.49Q651.85 602.96 648.88 598.25Q645.9 593.53 638.83 593.53Q632.88 593.53 628.72 599.49Q624.57 605.44 624.57 613.75V650H609.32V612.25Q609.32 593.53 596.11 593.53Q589.96 593.53 586 599.16Q582.04 604.79 582.04 613.75V650H566.86V583H582.04V593.6H582.3Q589.56 581.43 603.44 581.43Q610.37 581.43 615.57 585.26Q620.77 589.08 622.67 595.3Q630.13 581.43 644.92 581.43Q667.03 581.43 667.03 608.71Z M738.28 620.62H692.61Q692.87 629.91 698.33 634.95Q703.8 639.99 713.35 639.99Q724.08 639.99 733.04 633.58V645.81Q723.88 651.57 708.83 651.57Q694.05 651.57 685.64 642.44Q677.23 633.32 677.23 616.76Q677.23 601.12 686.49 591.28Q695.75 581.43 709.49 581.43Q723.23 581.43 730.75 590.26Q738.28 599.1 738.28 614.8ZM723.62 609.89Q723.56 601.71 719.76 597.17Q715.97 592.62 709.29 592.62Q702.75 592.62 698.2 597.39Q693.65 602.17 692.61 609.89Z M784.07 649.28Q779.62 651.5 772.36 651.5Q752.86 651.5 752.86 632.79V594.91H741.67V583H752.86V567.49L768.04 563.17V583H784.07V594.91H768.04V628.41Q768.04 634.36 770.2 636.91Q772.36 639.47 777.4 639.47Q781.26 639.47 784.07 637.24Z M832.02 597.46Q829.27 595.3 824.1 595.3Q817.36 595.3 812.85 601.39Q808.33 607.47 808.33 617.94V650H793.15V583H808.33V596.81H808.6Q810.82 589.74 815.43 585.78Q820.05 581.82 825.74 581.82Q829.86 581.82 832.02 583.07Z M896.79 583 866.56 660.73Q857.14 681.54 840.12 681.54Q835.35 681.54 832.14 680.69V668.06Q835.74 669.24 838.69 669.24Q847.19 669.24 851.38 660.86L855.89 649.87L829.26 583H846.08L862.04 631.68Q862.31 632.6 863.22 636.52H863.55Q863.88 635.02 864.73 631.81L881.48 583Z"/>
</svg>
