<?xml version="1.0" encoding="UTF-8"?>
<svg xmlns="http://www.w3.org/2000/svg" width="1600" height="600" viewBox="0 0 1600 600" role="img" aria-label="tokemetry logo">
  
    <defs>
      <linearGradient id="tokemetry-accent" x1="0" y1="40" x2="340" y2="180" gradientUnits="userSpaceOnUse">
        <stop offset="0" stop-color="#27D8F3"/>
        <stop offset="1" stop-color="#45E08D"/>
      </linearGradient>
      <linearGradient id="tokemetry-frame" x1="95" y1="10" x2="330" y2="210" gradientUnits="userSpaceOnUse">
        <stop offset="0" stop-color="#2E8391"/>
        <stop offset="1" stop-color="#256D78"/>
      </linearGradient>
      <linearGradient id="tokemetry-accent-light" x1="0" y1="40" x2="340" y2="180" gradientUnits="userSpaceOnUse">
        <stop offset="0" stop-color="#1CC7D8"/>
        <stop offset="1" stop-color="#2FBF82"/>
      </linearGradient>
    </defs>
    
  
  
      <g transform="translate(180,180) scale(1.15)">
        
    <g id="tokemetry-icon" stroke-linecap="round" stroke-linejoin="round">
      <!-- subtle usage window / frame -->
      <path d="M202 15 L305 74 L305 156 L202 215 L99 156 L99 74 Z" fill="none" stroke="url(#tokemetry-frame)" stroke-width="13" opacity="0.9"/>

      <!-- three token units -->
      <polygon points="70.85,125.50 44.00,141.00 17.15,125.50 17.15,94.50 44.00,79.00 70.85,94.50" fill="url(#tokemetry-accent)"/>
      <polygon points="122.19,74.50 104.00,85.00 85.81,74.50 85.81,53.50 104.00,43.00 122.19,53.50" fill="url(#tokemetry-accent)" opacity="0.96"/>
      <polygon points="122.19,162.50 104.00,173.00 85.81,162.50 85.81,141.50 104.00,131.00 122.19,141.50" fill="url(#tokemetry-accent)" opacity="0.96"/>

      <!-- abstract software data streams -->
      <path d="M76 110 C118 110 151 110 188 110" fill="none" stroke="url(#tokemetry-accent)" stroke-width="10"/>
      <path d="M126 66 C143 70 145 90 166 91 C176 91 181 100 190 106" fill="none" stroke="url(#tokemetry-accent)" stroke-width="8.5"/>
      <path d="M126 150 C145 145 148 128 168 127 C179 127 182 118 192 113" fill="none" stroke="url(#tokemetry-accent)" stroke-width="8.5"/>

      <!-- compact burn-rate / telemetry analytics line -->
      <path d="M187 110 C197 110 204 110 211 110 L221 94 L233 123 L247 73 L265 142 L282 92 L298 110 L319 110" fill="none" stroke="url(#tokemetry-accent)" stroke-width="9.5"/>

      <!-- usage cap / limit bracket -->
      <path d="M335 74 Q344 74 344 83 L344 157 Q344 166 335 166" fill="none" stroke="url(#tokemetry-accent)" stroke-width="8.5" opacity="0.96"/>
    </g>
    
      </g>
      <path fill="#F5F7FA" d="M654.54 354.29Q650.15 356.48 643 356.48Q623.79 356.48 623.79 338.05V300.73H612.77V289H623.79V273.72L638.75 269.47V289H654.54V300.73H638.75V333.73Q638.75 339.6 640.87 342.11Q643 344.62 647.96 344.62Q651.77 344.62 654.54 342.43Z M692.69 356.55Q677.41 356.55 668.29 347.3Q659.17 338.05 659.17 322.77Q659.17 306.14 668.68 296.8Q678.19 287.45 694.3 287.45Q709.77 287.45 718.41 296.54Q727.04 305.63 727.04 321.74Q727.04 337.53 717.73 347.04Q708.42 356.55 692.69 356.55ZM693.4 299.38Q684.63 299.38 679.54 305.5Q674.45 311.62 674.45 322.39Q674.45 332.76 679.61 338.73Q684.76 344.69 693.4 344.69Q702.23 344.69 706.97 338.82Q711.7 332.96 711.7 322.13Q711.7 311.24 706.97 305.31Q702.23 299.38 693.4 299.38Z M798.13 355H779.18L753.53 323.29H753.27V355H738.25V257.29H753.27V319.23H753.53L777.76 289H795.75L768.48 320.84Z M859.42 326.06H814.43Q814.69 335.21 820.07 340.18Q825.46 345.14 834.87 345.14Q845.44 345.14 854.27 338.82V350.88Q845.24 356.55 830.42 356.55Q815.85 356.55 807.57 347.56Q799.29 338.56 799.29 322.26Q799.29 306.85 808.41 297.15Q817.53 287.45 831.06 287.45Q844.6 287.45 852.01 296.15Q859.42 304.86 859.42 320.32ZM844.98 315.49Q844.92 307.43 841.18 302.95Q837.44 298.47 830.87 298.47Q824.42 298.47 819.94 303.18Q815.46 307.88 814.43 315.49Z M968.34 355H953.39V319.04Q953.39 308.66 950.46 304.02Q947.53 299.38 940.56 299.38Q934.7 299.38 930.61 305.24Q926.51 311.11 926.51 319.29V355H911.5V317.81Q911.5 299.38 898.48 299.38Q892.42 299.38 888.52 304.92Q884.62 310.46 884.62 319.29V355H869.67V289H884.62V299.44H884.88Q892.03 287.45 905.7 287.45Q912.53 287.45 917.65 291.22Q922.78 294.99 924.64 301.12Q931.99 287.45 946.56 287.45Q968.34 287.45 968.34 314.33Z M1038.46 326.06H993.48Q993.73 335.21 999.12 340.18Q1004.5 345.14 1013.91 345.14Q1024.48 345.14 1033.31 338.82V350.88Q1024.29 356.55 1009.46 356.55Q994.89 356.55 986.61 347.56Q978.33 338.56 978.33 322.26Q978.33 306.85 987.45 297.15Q996.57 287.45 1010.11 287.45Q1023.64 287.45 1031.05 296.15Q1038.46 304.86 1038.46 320.32ZM1024.03 315.49Q1023.96 307.43 1020.22 302.95Q1016.49 298.47 1009.91 298.47Q1003.47 298.47 998.99 303.18Q994.51 307.88 993.48 315.49Z M1083.51 354.29Q1079.13 356.48 1071.98 356.48Q1052.77 356.48 1052.77 338.05V300.73H1041.75V289H1052.77V273.72L1067.72 269.47V289H1083.51V300.73H1067.72V333.73Q1067.72 339.6 1069.85 342.11Q1071.98 344.62 1076.94 344.62Q1080.74 344.62 1083.51 342.43Z M1130.69 303.24Q1127.98 301.12 1122.89 301.12Q1116.25 301.12 1111.8 307.11Q1107.36 313.11 1107.36 323.42V355H1092.4V289H1107.36V302.6H1107.62Q1109.81 295.64 1114.35 291.74Q1118.89 287.84 1124.5 287.84Q1128.56 287.84 1130.69 289.06Z M1194.43 289 1164.65 365.57Q1155.37 386.07 1138.61 386.07Q1133.91 386.07 1130.75 385.23V372.79Q1134.29 373.95 1137.2 373.95Q1145.57 373.95 1149.7 365.7L1154.15 354.87L1127.91 289H1144.48L1160.21 336.95Q1160.46 337.86 1161.37 341.72H1161.69Q1162.01 340.24 1162.85 337.08L1179.35 289Z"/>
    
</svg>
